<?xml version="1.0" encoding="utf-8"?>
<!-- Generator: Adobe Illustrator 26.0.1, SVG Export Plug-In . SVG Version: 6.00 Build 0)  -->
<svg version="1.1" xmlns="http://www.w3.org/2000/svg" xmlns:xlink="http://www.w3.org/1999/xlink" x="0px" y="0px"
	 viewBox="0 0 1016 579" style="enable-background:new 0 0 1016 579;" xml:space="preserve">
<style type="text/css">
	.st0{display:none;}
	.st1{fill:#267370;stroke:#000000;stroke-miterlimit:10;}
</style>
<g id="Layer_1_xA0_Image_00000077314019183800605320000002609049338424224418_" class="st0">
	<image style="display:inline;overflow:visible;" width="1016" height="579" id="Layer_1_xA0_Image" xlink:href="5B9D503A.png" >
	</image>
</g>
<g id="Layer_2">
	<path class="st1" d="M148.5,395.3c0,0-13.3-143.5-72.8-206.7c0,0-17,12.5-38.3,0c-6.7-3.9-12.6-9-16.4-15.9
		c-7.1-12.6-5.3-29.2,2.4-41.1c7.9-12.3,23.4-18.7,37.8-17.3c14.7,1.4,25.6,12.2,32.8,24.3c1.7,6.4,3.2,12.9,3.5,19.6
		c0.1,1.5-1.9,18.6-2.8,17.9c0,0,156.7,118,161.8,112.7c0,0,55.9,46.2,75.8-195.8c0-0.4-8.7-4.8-9.3-5.3
		c-6.4-4.2-12.6-9.2-17.2-15.4c-7.6-10-8-23.3-3.6-34.8c15-38.7,73.3-30.3,76.9,11.2c1.2,13.8-5.4,28.1-16.8,36.1
		c-1.8,1.2,35.2,60.4,38.9,66.2c14.4,22.7,29.7,44.9,46.6,65.8c13,16,27,31.7,43.4,44.2c11.5,8.7,26.1,17.7,41.1,15.8
		c0,0,44.9,26.5,158.2-191.3c0.6-2.2-10.2-13.2-11.7-15.1c-13.2-17-8.9-41.6,7.9-54.5c27.3-20.9,68.7,8,62.3,40.7
		c-2.9,14.8-15.3,26.2-29.8,29.6c0,0,40.5,222.2,70.6,206.7c0,0,36,11.8,142-169.2c0.1-0.2-2.9-4.1-3.1-4.5
		c-2.3-3.7-4.1-7.8-5.4-11.9c-3.3-10.7-1.5-22.2,4.2-31.7c8.4-14,21.6-22.5,38.1-19.4c39,7.5,46.6,66.4,6.6,78.6
		c-3.4,1-7,1.7-10.6,2c-1.1,0.1-10.6-0.2-10.7,0.2c0,0-57.4,132.4-61.8,258.2C889.3,395.3,434.7,334.3,148.5,395.3z"/>
</g>
<g id="Layer_3">
	<path class="st1" d="M149.6,483c0,0,339.4-86,748.4-6.5c0,0-9-42.5-8.8-61.8c0,0-416.9-75-739.6,0V483z"/>
</g>
<g id="Layer_4" class="st0">
</g>
<g id="Layer_5">
	<path class="st1" d="M394.8,467.6c0,0-225.6,11.3-245.2,50.5c0,0-12.3,33.2,234.9,51.6c0,0,475.2,15.5,529.7-53.6
		C914.2,516.2,903.9,451.4,394.8,467.6z M215.7,518.4c0,0,295.7-55.9,632.7,0C848.4,518.4,538.7,564.7,215.7,518.4z"/>
</g>
</svg>
