<?xml version="1.0" encoding="utf-8"?>
<!-- Generator: Adobe Illustrator 26.0.1, SVG Export Plug-In . SVG Version: 6.00 Build 0)  -->
<svg version="1.1" id="Layer_1" xmlns="http://www.w3.org/2000/svg" xmlns:xlink="http://www.w3.org/1999/xlink" x="0px" y="0px"
	 viewBox="0 0 28 23" style="enable-background:new 0 0 28 23;" xml:space="preserve">
<style type="text/css">
	.st0{fill:#210303;}
	.st1{fill:#9F0100;}
	.st2{fill:#B40806;}
	.st3{fill:#6F0003;}
	.st4{fill:#B70008;}
	.st5{fill:#D30301;}
	.st6{fill:#D2070B;}
	.st7{fill:#D1403D;}
	.st8{fill:#AA0500;}
	.st9{fill:#740E1C;}
	.st10{fill:#48121F;}
	.st11{fill:#A51A1F;}
	.st12{fill:#D33333;}
	.st13{fill:#9C0109;}
	.st14{fill:#85090B;}
	.st15{fill:#6B0000;}
	.st16{fill:#890007;}
</style>
<image style="display:none;overflow:visible;" width="136" height="107" xlink:href="C:\Users\جمعان\Downloads\لقطة الشاشة 2024-03-25 034740.png"  transform="matrix(0.2489 0 0 0.2489 -3 -2)">
</image>
<polygon class="st0" points="16,16 14,7 19,7 "/>
<polygon class="st1" points="16,16 23,7 18.5,7 "/>
<polygon class="st2" points="16,16 14,22.5 20,16 23,8 23,7.9 23,7 "/>
<polygon class="st3" points="27,7 23,7 20,16 "/>
<polygon class="st4" points="27.9,7 27,7 20.1,15.9 "/>
<polygon class="st5" points="9.3,7 12,16 14,7 "/>
<polygon class="st1" points="14,22.3 9.3,7 5,7 "/>
<polygon class="st6" points="5,7 0.2,7 14,22.3 "/>
<polygon class="st7" points="0.2,7 3,4 5,7 "/>
<polygon class="st8" points="5,7 10,4 7,1 3,4 "/>
<polygon class="st9" points="13,1 7,1 10,4 "/>
<polygon class="st10" points="10,4 10,7 5,7 "/>
<polygon class="st10" points="18,4 18,7 23,7 "/>
<polygon class="st11" points="14,7 18,4 14.8,1 13,1 10,4 "/>
<polygon class="st12" points="10,7 10,4 14,7 "/>
<polygon class="st13" points="23,7 27.9,7 25,4 "/>
<polygon class="st14" points="21,1 25,4 23,7 18,4 "/>
<polygon class="st15" points="18,7 14,7 18,4 "/>
<polygon class="st16" points="13.9,22.3 14,22.5 16,16 15.9,15.8 "/>
<polygon class="st16" points="14.4,8.6 14.1,7 13.7,7 13.4,8.6 11.7,15.6 13.9,22.3 16,15.6 "/>
<polygon class="st9" points="15,1 14.8,1 18,4 21,1 "/>
</svg>
