<svg id="Layer_1" data-name="Layer 1" xmlns="http://www.w3.org/2000/svg" viewBox="0 0 141.7 188.52"><defs><style>.cls-1,.cls-3{fill:#ececec;}.cls-2{fill:#f7931e;}.cls-3{stroke:#000;stroke-miterlimit:10;}</style></defs><path class="cls-1" d="M863.34,521.45a4.48,4.48,0,0,1-.6-.33c-.2-.16-1-.39-.64-.75s1.12-.22,1.8-.15a57.53,57.53,0,0,0,7,.27c1.16,0,2.31-.07,3.47-.12l2.27-.1c.33,0,.67,0,1,0,.5-.08.44-.22.44-.69,0-1.88.17-3.75.2-5.62a25.37,25.37,0,0,1,.17-2.55,10.24,10.24,0,0,1,.51-2.22,10.81,10.81,0,0,1,1.14-2.25,4.75,4.75,0,0,1,.72-.86,12.55,12.55,0,0,1,1.6-1.49,19,19,0,0,1,3.18-1.85,13,13,0,0,1,3.53-1.09,10.58,10.58,0,0,1,3.72.07,7.08,7.08,0,0,1,3.32,1.81,10.87,10.87,0,0,1,2.76,3.44,10.23,10.23,0,0,1,.83,4.08,14.39,14.39,0,0,1-.68,4,10.13,10.13,0,0,1-1.8,3.25,16.16,16.16,0,0,1-6.4,4.61,20.73,20.73,0,0,1-6.15,1.34,42.7,42.7,0,0,1-6,.07,65.47,65.47,0,0,1-10-1.11l-1.1-.27c-.36-.07-1.07-.33-1.52-.44s-1-.37-1.47-.52A10.6,10.6,0,0,1,863.34,521.45Zm19.75-13.33a12,12,0,0,0-.21,1.89c0,.7-.13,1.5-.19,2.29s-.13,1.68-.27,2.53a4.88,4.88,0,0,1-.42,1.42c-.22.45-.51,1-.77,1.46s-.56.94-.84,1.36a4.36,4.36,0,0,0-.66,1.06,7.64,7.64,0,0,0,1.07,0c.4,0,.79.08,1.18.08.88,0,1.75,0,2.62.06a33.61,33.61,0,0,0,5.31-.06,10.18,10.18,0,0,0,2.26-.46,5,5,0,0,0,1.82-1,4.28,4.28,0,0,0,1.4-2.31,8.3,8.3,0,0,0,.27-3.19,10.33,10.33,0,0,0-1-3.25,9.16,9.16,0,0,0-2-2.72,6.67,6.67,0,0,0-2.15-1.32,8.78,8.78,0,0,0-2.57-.44,8.5,8.5,0,0,0-2.4.28,3.83,3.83,0,0,0-1.81,1A2.11,2.11,0,0,0,883.09,508.12Z" transform="translate(-839.56 -351.95)"/><path class="cls-2" d="M948.34,492.52v-.12c0-.17.09-.63.25-1.4.46-1.41.81-2.54,1-3.38.59-1.52,1.05-2.64,1.36-3.35.46-1,.8-1.48,1-1.46a9.66,9.66,0,0,1,1.82.54c.31.11,1.27.53,2.86,1.25a12.1,12.1,0,0,1,2.65,1.55c.74.52,1.08,1,1,1.52,0,.24-.18,1.06-.47,2.44-.24.72-.64,1.76-1.22,3.11s-1.06,2.07-1.35,2.54-.68.87-.88.85h-.12c-.87-.45-2.15-1.17-3.84-2.15C950.32,493.39,948.93,492.74,948.34,492.52Z" transform="translate(-839.56 -351.95)"/><path class="cls-1" d="M926.81,468.27l0-.17S926.85,468.56,926.81,468.27Z" transform="translate(-839.56 -351.95)"/><path class="cls-1" d="M976,455.64c0-1.91,0-3.05,0-3.43s-.07-.72-.15-1.3-.11-.92-.13-1.19a2.65,2.65,0,0,0-.6-1.54.46.46,0,0,0-.3-.11c-.16,0-.26.07-.3.13-.25.4-.7,1.21-1.34,2.42a22.34,22.34,0,0,1-1.53,2.7q-1,1.46-2.19,3.09a41.61,41.61,0,0,1-3.17,3.44,4.43,4.43,0,0,0-.07-.6,11.17,11.17,0,0,0-.82-2.51,9.37,9.37,0,0,0-1.66-2.77,7.35,7.35,0,0,0-2.3-2,4.52,4.52,0,0,0-2.76-.36,10,10,0,0,0-4,1.57,9.68,9.68,0,0,0-2.76,2.83,8.64,8.64,0,0,0-1.4,3.64,11.52,11.52,0,0,0,0,3.71l.1.55a7.47,7.47,0,0,0,1.25,3.12,8.32,8.32,0,0,0,2,1.82,7,7,0,0,0,2.27,1,8.72,8.72,0,0,0,2.09.39,13.06,13.06,0,0,0,1.55.12,1.44,1.44,0,0,1,.64,0,12,12,0,0,1-1.71,1.71,16.17,16.17,0,0,1-5,2.56,26.86,26.86,0,0,1-5.84,1.46,28.51,28.51,0,0,1-6.26.27l-.57-.06a26.67,26.67,0,0,1-2.84-.46c-.61-.13-1.58-.15-1.93-.75-.25-.44.11-.93.09-1.39s.05-1,0-1.45-.08-.85-.12-1.18-.07-.47-.1-.77-.06-1-.44-1-.24-.1-.51.36a6.56,6.56,0,0,0-.66,1.87,8.64,8.64,0,0,1-.72,2.46,5,5,0,0,1-1.65,2.09,5,5,0,0,1-3.23.67,2.31,2.31,0,0,1-1.63-1,6.91,6.91,0,0,1-.81-2,17.22,17.22,0,0,1-.42-2.43,10.39,10.39,0,0,0-.37-2.22,4.39,4.39,0,0,0-.85-1.83c-.52-.52-.78-1-1.72-.9a2.76,2.76,0,0,0-2.42,1.24,19,19,0,0,0-2.09,3.52c-.61,1.42-1.21,3.15-1.84,4.84s-1.34,3.66-2.12,5.48-1.47,3.51-2.53,5.45a16.91,16.91,0,0,1-3,4.11,9.57,9.57,0,0,1-4.45,2.16,4.23,4.23,0,0,1-1.57.09,9.56,9.56,0,0,1-3.94-1.2,12.07,12.07,0,0,1-3.86-4.68,13.91,13.91,0,0,1-1.08-4.79,2.29,2.29,0,0,1,0-.53,9.67,9.67,0,0,1,1.83-4.62,19.41,19.41,0,0,1,4.28-3.53,3.71,3.71,0,0,0,.7-.63c.15-.19.06-.16.15-.31s.17-.43,0-.56.07-.07-.21-.11-.32-.26-.77-.05a10.83,10.83,0,0,0-1.45.8,12.88,12.88,0,0,0-2.39,1.53,15.47,15.47,0,0,0-2.51,2.72,12.29,12.29,0,0,0-1.72,3.77,18.56,18.56,0,0,0-.49,4.66,22.88,22.88,0,0,0,.61,5.08,14.84,14.84,0,0,0,2.2,4.82,11.83,11.83,0,0,0,3.83,3.37,12.2,12.2,0,0,0,4.38,1.14,4.2,4.2,0,0,0,1.37,0,8.56,8.56,0,0,0,5-2.15,20.7,20.7,0,0,0,3.68-5c1-1.9,2-4.24,2.91-6.26s1.75-4.2,2.54-6.14c.63-1.58,1.33-3.35,2-4.64s1-1.55,2.13-1.87c.59-.16.56.36.76.77a5.64,5.64,0,0,1,.3,1.47s0,.05.09.3c.2.82.11,1.49.29,2.6a8.87,8.87,0,0,0,.66,2.24,6.32,6.32,0,0,0,1.44,1.92,5.08,5.08,0,0,0,2.4,1.15,7.38,7.38,0,0,0,1.94-.15,6.22,6.22,0,0,0,1.38-.58c.43-.21.68-.41,1.06-.63a5.61,5.61,0,0,1,1.1-.53s0-.06.27,0v0s23.5.95,32.3-10.74c.34-.48.67-1,1-1.44.05,0,.19.15.41.46a2.66,2.66,0,0,0,.26.55q.19.42.33.75l1,1.69a12.74,12.74,0,0,0,1.31,1.7.55.55,0,0,0,.49.23c.12-.07.16-.2.13-.39a.9.9,0,0,0-.09-.26,17,17,0,0,1-1.24-3.57,16.44,16.44,0,0,1-.47-1.93,20.12,20.12,0,0,1-.25-2.05l3.51-5.84C973.78,459.79,974.89,457.77,976,455.64Zm-15.56,6.75a15.72,15.72,0,0,1-3.13.32,3.61,3.61,0,0,1-2.61-.86,3.51,3.51,0,0,1,1.41-2.48,5.54,5.54,0,0,1,2.57-1.18l.39-.07a5.41,5.41,0,0,1,3,.46,3.72,3.72,0,0,1,1.91,2.6A19.65,19.65,0,0,1,960.4,462.39Z" transform="translate(-839.56 -351.95)"/><path class="cls-1" d="M856.44,438v0Z" transform="translate(-839.56 -351.95)"/><path class="cls-1" d="M923.41,511.34s0,0,0,0Z" transform="translate(-839.56 -351.95)"/><path class="cls-1" d="M903.8,515.24" transform="translate(-839.56 -351.95)"/><path class="cls-3" d="M920.17,364.81" transform="translate(-839.56 -351.95)"/><path class="cls-3" d="M921.25,351.53" transform="translate(-839.56 -351.95)"/><path class="cls-3" d="M917.8,356.24" transform="translate(-839.56 -351.95)"/><path class="cls-1" d="M859.56,483.69c-.51,0-.77-.29-.77-.85,0-.9.7-2.57,2.08-5a1.29,1.29,0,0,1,1.2-.69q1.42,0,4.13,2.2a1.43,1.43,0,0,1,.42,1.16,5.74,5.74,0,0,1-.23,1.42,13.14,13.14,0,0,1-1.23,3.28q-.09.27-.54.27a5.19,5.19,0,0,1-1.74-.46Z" transform="translate(-839.56 -351.95)"/><path class="cls-1" d="M882.63,494c.15-.7.27-1.31.36-1.82a5.23,5.23,0,0,1,.18-.68c.25-.8.45-1.4.58-1.78.23-.64.4-1,.5-1a6.72,6.72,0,0,1,1.2.19c.2.05.82.26,1.85.62a11.09,11.09,0,0,1,1.7.81c.51.28.77.58.77.88,0,.13,0,.52-.11,1.16a5.26,5.26,0,0,1-.17.88c-.12.41-.28.91-.49,1.51a16.88,16.88,0,0,1-.66,1.66c-.2.39-.37.58-.5.58h-.08c-.53-.22-1.33-.57-2.38-1l-.33-.14q-2-.75-2.49-.9Z" transform="translate(-839.56 -351.95)"/><path class="cls-1" d="M920.09,380.41q1.3,4.68,3,9.65t3.48,10l.84,2.31,4.28,1.06c-1.45-4.14-2.86-8.19-4.23-12.12s-2.69-8-3.82-11.75-2-7.44-2.76-10.93a57.39,57.39,0,0,1-1.19-9.92,34.26,34.26,0,0,1,.47-6.74,11.73,11.73,0,0,0-2.44,5,25.91,25.91,0,0,0-.6,6.59,49.39,49.39,0,0,0,.9,7.95C918.52,374.31,919.22,377.29,920.09,380.41Z" transform="translate(-839.56 -351.95)"/><path class="cls-1" d="M906.09,406.43l-3.55.4c-1.2,2.05-2.5,4.07-3.84,6-8.41,12.75-13.45,28.39-10.86,43.67.58,4.45,2.49,8.52,3.64,12.78a9,9,0,0,1,.3,1.86,29,29,0,0,0-1.77-7.35,42.29,42.29,0,0,1-1.55-7.38c-1.92-15,3.6-30.1,12.3-42.17C902.52,411.93,904.46,409.14,906.09,406.43Z" transform="translate(-839.56 -351.95)"/><path class="cls-1" d="M919.36,356.54l-.55-.33.26-2.87s-.51,1-1.16,2.34l0,0A16.74,16.74,0,0,1,917,358a36.83,36.83,0,0,0-1.59,4.68c-.41,1.64-.64,3.32-1,5q-.6,3.17-1.22,6.31c-.83,4.23-1.69,8.46-2.75,12.64a94.13,94.13,0,0,1-3.95,12.26c-.37.9-.76,1.79-1.16,2.68l3.58-.4c5.54-11.52,7.79-24.23,10.88-36.49,0-.15.08-.31.13-.46A74.89,74.89,0,0,1,919.36,356.54Z" transform="translate(-839.56 -351.95)"/><path class="cls-1" d="M960.25,418.43a1.86,1.86,0,0,0-2.43-1c-.6.28-.6,1.1-.57,1.63.42,8.18,2.14,15.79-.1,23.81,3.45-5.31,3.73-10.47,3.13-16.65,2.26,2.79,4.6,4.82,4.59,8.76,0,2.79.49,4.85-2.31,7.1-3.72,3-10,4.25-15.23,5-.45.07-.13,6.44.49,6.35a51.25,51.25,0,0,0,10-2.46,16.37,16.37,0,0,0,8-6.81,1.86,1.86,0,0,0,.33-.83C967.89,433.49,965.23,426.85,960.25,418.43Z" transform="translate(-839.56 -351.95)"/><path class="cls-1" d="M933.68,419.54q1.89,4.62,3.44,8.87c1,2.83,1.87,5.49,2.51,8a102.71,102.71,0,0,1,2.87,16.52,75,75,0,0,1-.17,15.34,52.78,52.78,0,0,1-1.25,6.76h4.77q.49-3.51.7-7.68a82.42,82.42,0,0,0-.2-11,100.77,100.77,0,0,0-2.1-13.49q-1.51-6.72-3.63-13.36T936,416.4c-1-2.58-2-5.14-3.07-7.67l-4.18-.79c.31.71.61,1.42.92,2.12C931.07,413.3,932.41,416.45,933.68,419.54Z" transform="translate(-839.56 -351.95)"/><path class="cls-1" d="M937.54,483.94a21.75,21.75,0,0,1-4.49,5.54,14.93,14.93,0,0,1-8.78,3.69,17.38,17.38,0,0,1-2.29,0,23,23,0,0,1-2.41-.26,20.93,20.93,0,0,0,5.65,3.3,13.43,13.43,0,0,0,6,.89,11.46,11.46,0,0,0,5.36-1.92,15.46,15.46,0,0,0,4.65-5.21,31.78,31.78,0,0,0,2.84-6.8Z" transform="translate(-839.56 -351.95)"/><path class="cls-1" d="M843,477.86c-.68.68-1.35,1.37-2,2l-.7.63c-.21.19-.53.38-.65.64s0,.44.29.46a1.44,1.44,0,0,0,.89-.29c.75-.51,1.49-1.05,2.22-1.6Z" transform="translate(-839.56 -351.95)"/><path class="cls-1" d="M889.85,470.08a3.18,3.18,0,0,0-1.82-1.65,1.14,1.14,0,0,0-1,0,1.45,1.45,0,0,0-.48.76,51.75,51.75,0,0,0-1.91,6.59l.88-.95c2.32.61,2.94,4,1.52,5.92s-4,2.61-6.42,2.65a17.51,17.51,0,0,1-9.85-2.91c-.08,1.51-.16,3-.23,4.53a1.9,1.9,0,0,0,.18,1.16c.28.43.85.56,1.33.75a4.89,4.89,0,0,1,2.75,4.16,10.61,10.61,0,0,1-1.12,5.07c-1.43,3.25-3.79,6.39-7.2,7.38-4.34,1.25-9.11-1.59-11.18-5.6s-1.91-8.84-.89-13.24c1.53-6.63,4.86-12.69,7.14-19.1,4.66-13.15,4.76-27.71,1.35-41.24a6.77,6.77,0,0,1,.06,1l.06,1c0,.68.05,1.37.05,2.05,0,1.37,0,2.74-.07,4.11s-.18,2.74-.34,4.1-.34,2.72-.58,4.07-.5,2.7-.82,4-.67,2.66-1.06,4-.82,2.62-1.29,3.91-1,2.56-1.51,3.82-1.13,2.51-1.74,3.73-1.27,2.44-1.95,3.63-1.41,2.35-2.16,3.5-1.54,2.27-2.36,3.37-1.68,2.17-2.56,3.21c-.48.57-1,1.11-1.49,1.65l.5,2A56.84,56.84,0,0,0,861,456.78c-1.45,9.33-7.86,17.23-9.85,26.46a29,29,0,0,0,1.71,17.5c1.88,4.35,5.36,8.53,10.06,9.07s9.13-2.84,11.32-7,2.62-9,3-13.74c3.77,1,7.91-.94,10.24-4.08s3.09-7.19,3.11-11.1A8.6,8.6,0,0,0,889.85,470.08Z" transform="translate(-839.56 -351.95)"/><path class="cls-1" d="M871.36,519.4c-3.8-1.74-7.54-3.56-11-5.24-1.19-.58-1.06-.49-1.6-1.06a29.54,29.54,0,0,0,7.43,6.68Z" transform="translate(-839.56 -351.95)"/><path class="cls-1" d="M886.35,452.51c-.43.46-.86.93-1.29,1.42-2.17,2.48-3.88,5.42-6,7.9-.53.61-1.07,1.42-1.85,1.54-2.59.4-5-.64-5.79-3.19-1.94-6.47-2.35-12.23.74-18.34,3.37-6.67,9.31-10.64,14.75-15.44a28.74,28.74,0,0,0,9.81-16.89,3.14,3.14,0,0,0-1.35-3.32c-1.72,7.9-3.82,13.51-10.14,19-5.62,4.85-11.66,9.07-15,16.13-3,6.23-3.13,12.89-2.47,19.7a9.66,9.66,0,0,0,2.23,5c1.55,2,3.48,3.73,6.21,3.19,3.34-.66,4.86-3.42,6.82-6a51.33,51.33,0,0,1,3.92-5.08Z" transform="translate(-839.56 -351.95)"/><path class="cls-1" d="M940.47,452.28c-.1-.29-.21-.58-.33-1s-.26-1-.42-1.43a27.5,27.5,0,0,0-.87-2.71c0-.08-.51.11-.73.18s-.69.2-1,.28c-1.27.33-2.69.73-3.91,1.16a30.53,30.53,0,0,1-3.53,1.11,8.39,8.39,0,0,1-2.18.26,6.93,6.93,0,0,1-5.44-3c-2.31-2.89-3.33-6.95-3.84-10.52-1.54-10.85-2.78-21.31-3.45-32.24-1.73,5.54-3.71,8.87-3.35,15.17.43,7.6,1.86,16.81,1.88,24.8,0,2.73.22,5.5-.54,8.11a10.3,10.3,0,0,1-4.65,5.79,3.27,3.27,0,0,1-3,.19,5.86,5.86,0,0,1-2.75-2.95c-.66-1.22-.49-2.77-1.4-3.82-2.25-2.58-4.53-3.93-8-3.54a11.68,11.68,0,0,0-3.67,1.4c0,2-.08,4,0,5.92,2-.61,3.76-.82,5.53.49,2.5,1.84,2.15,5.22,4.31,7.38a7.67,7.67,0,0,0,8,2,15.21,15.21,0,0,0,8.15-5.69c2-2.83,2.22-6.06,2.94-9.32,1.08,2.1,2.14,4.13,4.43,5.06a11.3,11.3,0,0,0,6.78.47c2-.39,4.13-1.21,6.12-1.74.56-.15,1.29-.4,1.73-.48s.63-.06.94-.12a13.36,13.36,0,0,0,2.24-.57C940.76,452.83,940.56,452.57,940.47,452.28Z" transform="translate(-839.56 -351.95)"/><path class="cls-1" d="M953.24,415.2a1.45,1.45,0,0,0-.37-2.15A78.08,78.08,0,0,0,934,404.89c-44-12.64-89.07,20.15-90.2,65.95A70.33,70.33,0,0,0,860.17,518a70,70,0,0,1-15.61-47.11c2.77-54.34,62-83.53,106.77-55.35a1.45,1.45,0,0,0,1.91-.31Z" transform="translate(-839.56 -351.95)"/><path class="cls-1" d="M977.64,447.61a71.17,71.17,0,0,0-10.54-20.06,70.78,70.78,0,0,1,10.18,20.17c17.16,55.51-36.57,106-90.46,85.65a1.48,1.48,0,0,0-1.86.72h0a1.49,1.49,0,0,0,.81,2.07A71.88,71.88,0,0,0,929.16,538C967.93,527.45,990.49,485.71,977.64,447.61Z" transform="translate(-839.56 -351.95)"/><path class="cls-1" d="M926,464.82c.19-.6.4-1.39.62-2.36a22.91,22.91,0,0,1,.8-2.77c.21-.6.41-1.1.58-1.51a2.24,2.24,0,0,1,.65-.92,1.7,1.7,0,0,1,1-.33,8,8,0,0,1,1.68.19c.75.16,1.47.3,2.15.4a15.31,15.31,0,0,0,2,.18,11.88,11.88,0,0,0,2.05-.16,13.18,13.18,0,0,0,2.2-.59c-.1.6-.18,1.2-.26,1.79s-.15,1.18-.25,1.78a12,12,0,0,1-2,3.26,6.39,6.39,0,0,1-2.36,1.6,9.29,9.29,0,0,1-3,.53c-1.1,0-2.37.07-3.8.09.78-.16,1.44-.32,2-.47a11.24,11.24,0,0,0,1.42-.47,9.53,9.53,0,0,0,1.11-.53,11.08,11.08,0,0,0,1-.7c.35-.26.74-.57,1.16-.93l1.55-1.27c-1.38-.05-2.55-.1-3.49-.17a9.92,9.92,0,0,0-2.54.1,5.33,5.33,0,0,0-2.15.94A11.09,11.09,0,0,0,926,464.82Z" transform="translate(-839.56 -351.95)"/><path class="cls-1" d="M937.49,503c.14-.46.29-1.07.44-1.82a19.09,19.09,0,0,1,.58-2.14c.16-.47.3-.85.42-1.17a1.81,1.81,0,0,1,.48-.71,1.19,1.19,0,0,1,.75-.25,5.31,5.31,0,0,1,1.22.15l1.55.31a10.7,10.7,0,0,0,1.48.13,7.45,7.45,0,0,0,1.48-.12,8.53,8.53,0,0,0,1.6-.46c-.07.47-.13.93-.19,1.38s-.11.92-.18,1.38a9.44,9.44,0,0,1-1.48,2.52,4.39,4.39,0,0,1-1.71,1.23,6.17,6.17,0,0,1-2.14.41l-2.75.07c.56-.13,1-.25,1.43-.36a10.89,10.89,0,0,0,1-.36,6.65,6.65,0,0,0,.8-.42,6.89,6.89,0,0,0,.75-.53c.26-.21.54-.45.84-.73s.68-.6,1.12-1c-1,0-1.84-.08-2.52-.14a7.34,7.34,0,0,0-1.85.08,3.73,3.73,0,0,0-1.55.73A8.17,8.17,0,0,0,937.49,503Z" transform="translate(-839.56 -351.95)"/><path class="cls-1" d="M868.82,499.59a5.61,5.61,0,0,0,.35-1.72,7.94,7.94,0,0,0-.14-1.62,13.39,13.39,0,0,0-.43-1.59c-.18-.53-.36-1.07-.54-1.63a2.53,2.53,0,0,1-.15-1.07,2.38,2.38,0,0,1,.24-.9,1.66,1.66,0,0,1,.54-.6,1.09,1.09,0,0,1,.73-.17,1.45,1.45,0,0,1,.87.39,2.21,2.21,0,0,1,.53.78,2.47,2.47,0,0,1,.18.92,1.4,1.4,0,0,1-.2.77.84.84,0,0,1-.62.34,1.8,1.8,0,0,1-1.06-.34,18.43,18.43,0,0,1,.81,2.7,7.42,7.42,0,0,1,.14,2.47,6.76,6.76,0,0,1-.74,2.35A10,10,0,0,1,867.5,503c0-.41.07-.85.11-1.33s.06-1,.06-1.45,0-1-.07-1.5a7.45,7.45,0,0,0-.29-1.45,4.9,4.9,0,0,0-.6-1.29,3.62,3.62,0,0,0-1-1,4,4,0,0,1,.47,1.37q0,.51-.57.72a2.21,2.21,0,0,1-.93.14A1.38,1.38,0,0,1,864,497a1.51,1.51,0,0,1-.46-.51,2.79,2.79,0,0,1-.29-.68,2.66,2.66,0,0,1,0-1.42,1.31,1.31,0,0,1,1.67-1,2.8,2.8,0,0,1,1.32.83,8.58,8.58,0,0,1,1.38,2A16.49,16.49,0,0,1,868.82,499.59Z" transform="translate(-839.56 -351.95)"/><path class="cls-1" d="M967.38,483.46a4,4,0,0,0,.25-1.28,5.31,5.31,0,0,0-.1-1.2,8.75,8.75,0,0,0-.32-1.19c-.13-.39-.26-.8-.4-1.21a1.89,1.89,0,0,1-.11-.8,1.69,1.69,0,0,1,.18-.67,1.17,1.17,0,0,1,.4-.45.84.84,0,0,1,.54-.13,1.09,1.09,0,0,1,.65.3,1.65,1.65,0,0,1,.39.58,1.8,1.8,0,0,1,.14.68,1,1,0,0,1-.15.57.63.63,0,0,1-.46.26,1.32,1.32,0,0,1-.79-.26,14.24,14.24,0,0,1,.61,2,5.75,5.75,0,0,1,.1,1.84,5.11,5.11,0,0,1-.56,1.75,7.24,7.24,0,0,1-1.36,1.75c0-.3.05-.63.08-1a9.65,9.65,0,0,0,0-1.08c0-.37,0-.75,0-1.12a5.3,5.3,0,0,0-.22-1.08,3.64,3.64,0,0,0-.44-1,2.89,2.89,0,0,0-.73-.75,3.23,3.23,0,0,1,.35,1c0,.25-.13.43-.43.54a1.85,1.85,0,0,1-.69.1,1,1,0,0,1-.51-.18,1.15,1.15,0,0,1-.34-.38,2,2,0,0,1-.21-.51,1.89,1.89,0,0,1,0-1.05,1.07,1.07,0,0,1,.45-.67,1,1,0,0,1,.79-.1,2.07,2.07,0,0,1,1,.62,6.25,6.25,0,0,1,1,1.5A12.54,12.54,0,0,1,967.38,483.46Z" transform="translate(-839.56 -351.95)"/><path class="cls-1" d="M909.06,475.5a6.11,6.11,0,0,0,.38-1.94,7.86,7.86,0,0,0-.15-1.82,14.35,14.35,0,0,0-.48-1.79c-.2-.6-.41-1.21-.62-1.85a2.81,2.81,0,0,1-.16-1.2,2.64,2.64,0,0,1,.27-1,1.77,1.77,0,0,1,.6-.67,1.27,1.27,0,0,1,.83-.2,1.7,1.7,0,0,1,1,.44,2.59,2.59,0,0,1,.6.89,2.86,2.86,0,0,1,.2,1,1.44,1.44,0,0,1-.23.87.89.89,0,0,1-.69.38,2,2,0,0,1-1.19-.38,22.73,22.73,0,0,1,.91,3,8.56,8.56,0,0,1,.16,2.79,7.86,7.86,0,0,1-.84,2.65,11.16,11.16,0,0,1-2.06,2.65c0-.46.07-1,.12-1.49s.07-1.09.07-1.65,0-1.12-.08-1.69a8.56,8.56,0,0,0-.33-1.63,5.49,5.49,0,0,0-.67-1.45,4.48,4.48,0,0,0-1.11-1.15,4.7,4.7,0,0,1,.53,1.55c0,.38-.18.65-.65.82a2.58,2.58,0,0,1-1,.15,1.54,1.54,0,0,1-.76-.27,1.69,1.69,0,0,1-.52-.57,3.56,3.56,0,0,1-.32-.77,3,3,0,0,1,0-1.6,1.68,1.68,0,0,1,.68-1,1.57,1.57,0,0,1,1.21-.15,3.09,3.09,0,0,1,1.49.94,9.17,9.17,0,0,1,1.55,2.27A18.56,18.56,0,0,1,909.06,475.5Z" transform="translate(-839.56 -351.95)"/><path class="cls-1" d="M903.49,429.78c-.14.36-.29.54-.39.54s-.18-.25-.08-.69a7.63,7.63,0,0,0,.15-1.55c0-2.06-1.16-4.09-3.51-6.15-.14-.1-.14-.29,0-.47l.65-1.15c.07-.11.14-.11.29,0a8.1,8.1,0,0,1,3.43,6.9,6.69,6.69,0,0,1-.51,2.57" transform="translate(-839.56 -351.95)"/><path class="cls-1" d="M873.23,474.46a1.61,1.61,0,0,1-.64.4.41.41,0,0,1-.54,0,.81.81,0,0,1,0-.64,3.17,3.17,0,0,1,.74-1.3,4.92,4.92,0,0,1,1.46-1.68,5.35,5.35,0,0,1,1.85-.95,2.41,2.41,0,0,1,1.72.47,3.84,3.84,0,0,1,.93,2.39,2.77,2.77,0,0,1-.36,1.65,16.25,16.25,0,0,1-1,1.68,10.75,10.75,0,0,1-1.32,1.44,9.22,9.22,0,0,1-1.23,1,2.54,2.54,0,0,1-1.2.91c-.3.12-.58.15-.65,0a.38.38,0,0,1-.05-.55,5.51,5.51,0,0,1,.77-1,12.35,12.35,0,0,0,2.08-2.45,1.49,1.49,0,0,0,.15-1.06,1.31,1.31,0,0,0-.35-.9,1,1,0,0,0-.85-.27,3.34,3.34,0,0,0-1.46.86" transform="translate(-839.56 -351.95)"/><path class="cls-1" d="M859.84,494.46c.08-.24.16-.16.16.09a5.78,5.78,0,0,1-.74,2.38c-.41.74-.82,1.07-1.31,1.07a1,1,0,0,1-1.15-.74,3.77,3.77,0,0,1-.33-2.22,7.45,7.45,0,0,1,.33-2.14c.16-.74.41-1.47.65-2.21s.58-1.4.82-2a4.63,4.63,0,0,1,.66-1.15c.25-.32.41-.57.49-.65s0,.16-.24.65a20.76,20.76,0,0,0-1,2.55,27.71,27.71,0,0,0-.82,3.29,4.36,4.36,0,0,0,.25,1.89c.16.57.41.82.82.74a1.74,1.74,0,0,0,.82-.58c.25-.41.41-.66.58-1" transform="translate(-839.56 -351.95)"/><path class="cls-1" d="M950.7,428.35c0-.4.15-.33.29,0a9.22,9.22,0,0,1,.26,3.89c-.18,1.31-.6,2-1.32,2.29a1.55,1.55,0,0,1-2.09-.43,5.84,5.84,0,0,1-1.72-3.05,11.36,11.36,0,0,1-.72-3.29,32.77,32.77,0,0,1-.29-3.6c-.06-1.22,0-2.36.09-3.34a6.32,6.32,0,0,1,.31-2c.17-.62.27-1.07.35-1.24s.09.24,0,1.1a33.19,33.19,0,0,0,0,4.26,44.1,44.1,0,0,0,.65,5.25,7,7,0,0,0,1.42,2.62c.56.74,1.06,1,1.61.61a2.62,2.62,0,0,0,.88-1.3c.13-.73.23-1.18.28-1.76" transform="translate(-839.56 -351.95)"/><path class="cls-1" d="M897.53,441.4a2.57,2.57,0,0,1-2.17-1.2,4.44,4.44,0,0,1-.25-2.2,12.77,12.77,0,0,1,.7-2.15l.63-1.44a4,4,0,0,1,.85-1.09c.25,0,.21.09,0,.5l-.37.82a5.29,5.29,0,0,0-.33,1.33,1.93,1.93,0,0,0,.41,1.28c.22.34.88.51,1.78.42a2.11,2.11,0,0,0,1.14-.36,2.71,2.71,0,0,0,.82-.74,5.48,5.48,0,0,0,.54-1.24A6.68,6.68,0,0,1,902,434a3.65,3.65,0,0,1,.6-1.08.55.55,0,0,1,.24-.27c.15-.05.25,0,.21.09a.39.39,0,0,0,0,.26,9.23,9.23,0,0,0-.38,1.42,1.35,1.35,0,0,0,.28,1.6c0,.15.41.18,1.07.35a2.29,2.29,0,0,0,1.54-.43,3.42,3.42,0,0,0,1.24-1.42,17.93,17.93,0,0,0,.7-2.14c.22-.52.33-.47.5,0a5.32,5.32,0,0,1-.14,2.27,14,14,0,0,1-1.12,2.82c-1,1.41-1.85,2.26-2.9,2.41a2.42,2.42,0,0,1-2.18-.35,1,1,0,0,0-.75,0,4.61,4.61,0,0,1-.93.7c-.38.32-.72.53-1.11.86a2.57,2.57,0,0,1-1.35.26" transform="translate(-839.56 -351.95)"/><path class="cls-1" d="M917.74,496.53c-.92-.46-1.38-1-1.38-1.48a2.35,2.35,0,0,1,.87-1.75c.58-.51,1.07-.7,1.46-.56s.48.46.48,1.05a5.44,5.44,0,0,1-.34,1.74,2,2,0,0,1,.87.71,2.69,2.69,0,0,1-.6,1.23,3.12,3.12,0,0,0-.85-.68,8.21,8.21,0,0,1-2,1.94,13.06,13.06,0,0,1-2.45,1.51c-.17.07-1.05.41-2.62,1a1.68,1.68,0,0,1-.49.15c-.05,0-.05,0-.05-.05s.13-.17.42-.34c1.16-.71,2.32-1.41,3.49-2.09a16.16,16.16,0,0,0,3.15-2.37m.56-1.26a2,2,0,0,0,.05-.88c-.05-.31-.2-.46-.42-.46a1.09,1.09,0,0,0-.46.15c-.17.12-.26.22-.26.31s.36.51,1.09.88" transform="translate(-839.56 -351.95)"/><path class="cls-1" d="M915.46,529.15a16.55,16.55,0,0,0,4.8-.78c.48-.15.74-.18.74-.11a2.08,2.08,0,0,1-.55.56,8.48,8.48,0,0,1-5.8,2,2.87,2.87,0,0,1-1.81-.59,1.83,1.83,0,0,1-.67-1.44,8.07,8.07,0,0,1,2-4.92c-1.18-.37-1.78-1-1.78-1.84a4.6,4.6,0,0,1,1.41-2.74c1-1,1.7-1.55,2.29-1.55.15,0,.29.11.44.34a1.23,1.23,0,0,1,.26.77,3.13,3.13,0,0,1-.48.89c-.33.44-.48.63-.52.51a.79.79,0,0,0-.81-.7c-.18,0-.44.19-.78.52a1.74,1.74,0,0,0-.44.92,2,2,0,0,0,1.92,1,2.79,2.79,0,0,0,1.41-.85c.36-.33.77-.7,1.14-1.07.15-.07.22,0,.22.34a3.56,3.56,0,0,1-.77,2.1,13.64,13.64,0,0,0-4.4,4.62,1.84,1.84,0,0,0-.26.85c0,.77.81,1.18,2.44,1.18" transform="translate(-839.56 -351.95)"/><path class="cls-1" d="M935.26,531.93c-.89.37-1.42.6-1.55.62a0,0,0,0,1,0,0,4.81,4.81,0,0,1,1-.84,29.5,29.5,0,0,0,2.82-2.53c.63-.76,1.47-2,2.56-3.6a19.91,19.91,0,0,1,2.46-3,6.29,6.29,0,0,1,3.55-1.76,3.48,3.48,0,0,1,1.16.07,3.78,3.78,0,0,0,1.29.1,1.85,1.85,0,0,0,1.43-.9c.28-.54.52-1,.75-1.58.17-.37.36-.56.53-.58s.14.07.16.24a3.37,3.37,0,0,1-.16,1.13c-.1.27.55.32,1.86.16.12,0,.2-.07.2-.11a3.27,3.27,0,0,0-.33-1c-.11-.16,0-.42.12-.78q.39-.95.54-.84a2,2,0,0,1,.63,1.34A5.45,5.45,0,0,1,954,520a3,3,0,0,1-.55,1.39c-.55.45-1.44.48-2.78,0a4.44,4.44,0,0,1-2.84,2,5,5,0,0,1-1.13-.08,4.43,4.43,0,0,0-1,0,7.85,7.85,0,0,0-4.89,3c-1.12,1.37-2.23,2.79-3.39,4.17a6.34,6.34,0,0,1-2.17,1.5" transform="translate(-839.56 -351.95)"/><path class="cls-1" d="M928.2,443.37a5.84,5.84,0,0,0-.81-2.67,8.08,8.08,0,0,0-1.62-1.87,1.25,1.25,0,0,1-.94.34,1.74,1.74,0,0,1-1.43-.56,2.09,2.09,0,0,1-.46-1.36,4,4,0,0,1,.17-1.14,3.35,3.35,0,0,1,.44-.93c.56.31,1.13.65,1.7,1a8.82,8.82,0,0,1,1.57,1.3,6.59,6.59,0,0,1,1.17,1.7,6,6,0,0,1,.58,2.19,7.88,7.88,0,0,0,.37-2.25,7.06,7.06,0,0,0-.34-2.15,9.62,9.62,0,0,0-.88-2,14.91,14.91,0,0,0-1.19-1.78c-.44-.57-.87-1.1-1.3-1.59s-1-1.1-1.49-1.63a12,12,0,0,1-1.43-1.68,9.68,9.68,0,0,1-1.07-2,6.27,6.27,0,0,1-.42-2.35,8,8,0,0,1,1.57-5.24,5.2,5.2,0,0,1,4.19-1.87,7,7,0,0,1,1.92.27,5.72,5.72,0,0,1,1.7.77,4.47,4.47,0,0,1,1.24,1.25,3.47,3.47,0,0,1,.56,1.7s0,0,0,0h0s-.06-.07-.25-.22l-.67-.47c-.26-.18-.5-.34-.71-.5a1.45,1.45,0,0,1-.32-.26s0-.06.1-.05l.07,0s-.13-.05-.37-.08-.37-.09-.37-.17,0-.06.1-.12a11.58,11.58,0,0,1-1.52-.24,8.47,8.47,0,0,0-1.71-.17,6.2,6.2,0,0,0-1.74.24,4.16,4.16,0,0,0-1.46.72,3.7,3.7,0,0,0-1,1.25,3.93,3.93,0,0,0-.38,1.81,5.4,5.4,0,0,0,.43,2.18,9.11,9.11,0,0,0,1.08,1.87,19.9,19.9,0,0,0,1.38,1.66c.49.52,1,1,1.41,1.56s1,1.2,1.44,1.82a14.54,14.54,0,0,1,1.21,2,13.17,13.17,0,0,1,.84,2.2,9.43,9.43,0,0,1,.32,2.49c0,.35,0,.78,0,1.28a8.52,8.52,0,0,1-.24,1.5,5.9,5.9,0,0,1-.49,1.34A1.46,1.46,0,0,1,928.2,443.37Z" transform="translate(-839.56 -351.95)"/><path class="cls-1" d="M972.63,495.56a14.08,14.08,0,0,0-.69-1.95c-.21-.54-.4-.93-.81-1.1a4.09,4.09,0,0,0-2.3,0,9.31,9.31,0,0,0-1.14.36c-.38.11-.84.3-1.2.4a25.23,25.23,0,0,1-3,.85,11.17,11.17,0,0,1-3-.18c-.13,0-.29-.22-.31.16s-.17.42,0,1,.32,1.4.54,2.2.62,2,.82,2.93a2.83,2.83,0,0,0,.14.75c-1.33,4.93-3.59,7.14-8.54,8.36,0-.2,0-.19.07-.44s.09-.61.12-.94a8.69,8.69,0,0,0,0-1.35,1,1,0,0,0-.25-.62c-.13-.18-.07-.09-.23-.11s-.22,0-.3.19c-.23.51-.36,1.05-.62,1.58a6.6,6.6,0,0,1-.89,1.56,3.1,3.1,0,0,1-1.48,1.05,7.76,7.76,0,0,1-2.1,0c.06-.37.17-.57.23-1a11.66,11.66,0,0,0,.15-1.19,11.9,11.9,0,0,0,0-1.78.81.81,0,0,0-.4-.59c-.21-.08-.33,0-.42.19-.31.66-.41,1.36-.75,2a6.66,6.66,0,0,1-1.17,1.94,4.4,4.4,0,0,1-1.9,1.27,6.34,6.34,0,0,1-2.74,0c0-.26.06-.48.09-.75s.09-.49.11-.79,0-.74,0-1.06,0-.71,0-1,0-.52-.28-.6-.34.08-.49.33-.18.57-.33.89-.09.7-.4,1c-3.79,3.85-6.87,4.61-11.93,2.45-.09,0-.43-.55-.38-.66a12.61,12.61,0,0,1,1-1.68,14.55,14.55,0,0,0,.87-1.63,6.71,6.71,0,0,0,.38-1.34,2.67,2.67,0,0,0,.09-1.1,2.8,2.8,0,0,0-.73-1.68,4.1,4.1,0,0,0-1.77-1,11.77,11.77,0,0,0-2.51-.55,10,10,0,0,0-3.66.31,10.41,10.41,0,0,0-4.7,3.86,8.68,8.68,0,0,0-.68,1.71c-.1.23.08.23.17.33s0,0,.12.09l.27.08a5.56,5.56,0,0,0,.88.11c.23,0,.43,0,.65,0s.43,0,.64,0a3.65,3.65,0,0,1,.71.11,1.24,1.24,0,0,1,.39.14,5.46,5.46,0,0,1,1.1.8,1.65,1.65,0,0,1,.44.9c.08.3-.16.4-.25.54s-.06.07-.13.14,0,0-.11.07a16.19,16.19,0,0,1-8.6.16,2.06,2.06,0,0,0-.06-.8,6.25,6.25,0,0,0-.59-1.77,9.78,9.78,0,0,0-3.58-3.45,2.64,2.64,0,0,0-2.34,0c-.81.29-1.25,1-1.78,1.62a11.19,11.19,0,0,0-1.15,2.14,5.66,5.66,0,0,0-.5,2,6.44,6.44,0,0,0,.61,3.61c.62,1.09,1.5.94,2.5,1.38a1.56,1.56,0,0,0,.65,0c.69,0,1.4-.08,2.12-.16.32,0,.88-.1,1.19-.12s.54-.05.75.12.13.26,0,.49a1.83,1.83,0,0,1-.42.68c-4.46,4-8.12,7.55-14.43,8.7a19.51,19.51,0,0,1-8.69-.74l-8.48.65c7.21,3.12,14.56,5,18.69,4.62,8.53-.87,13.4-10.94,16-14.13a56.09,56.09,0,0,0,10-1.55c.08,0,.08,0,.14-.11s.36-.3.46-.23c.5.38.65,1,1.05,1.41a5,5,0,0,0,2.1,1.72,19.17,19.17,0,0,0,7.18,1,10.54,10.54,0,0,0,2.7-.74,13,13,0,0,0,2.42-1.28c.47.12.63.3,1.16.41a6.87,6.87,0,0,0,1.67.29,13.89,13.89,0,0,0,2.46-.24c.85-.17,1.86-.78,2.7-1,.67-.19,1.35.18,2.06.11a14.17,14.17,0,0,0,2.1-.2c.77-.19,1.34-.62,2.22-.89s1.89-.05,3-.31a13,13,0,0,0,3.37-1.25,9,9,0,0,0,3.24-2.43,20.83,20.83,0,0,0,2.57-6.42c.17-.6.2-1.47.38-2.07a2.77,2.77,0,0,1,.83-1.33c.12-.11.32-.08.53-.15l.77-.21.91-.23c.29-.08.68-.17.94-.25.66-.21,1.43-.48,2-.73a5.06,5.06,0,0,0,1.42-.76,1.88,1.88,0,0,0,.51-1.39A7.3,7.3,0,0,0,972.63,495.56Z" transform="translate(-839.56 -351.95)"/><path class="cls-1" d="M879.67,444a3.89,3.89,0,0,0,0-1.44c-.15-.57-.38-.84-.72-.84-.19,0-.46.15-.8.53a1.38,1.38,0,0,0-.53.8c0,.46.68.76,2.09,1m3,0a3.69,3.69,0,0,0-2.06-1.86,6.88,6.88,0,0,1-.22,2c.15,0,.87.15,2.16.31a.2.2,0,0,0,.19,0,.56.56,0,0,0-.07-.46m1-.91a1.36,1.36,0,0,1,.07.38,4.32,4.32,0,0,1-.49,1.71c-.31.64-.61,1-.88,1a16.09,16.09,0,0,0-2.54-.46,10.61,10.61,0,0,1-2.21,2.81,13,13,0,0,1-2.93,1.79c-.3.15-.49.34-.49.49s.11.27.34.35a9.9,9.9,0,0,0,3.58.07c.68-.07,2.31-.42,4.86-1a2.22,2.22,0,0,1,.5-.08,8.52,8.52,0,0,1-1.49,1.1,9.15,9.15,0,0,1-2.28,1,12.54,12.54,0,0,1-4.07.83c-1.44,0-2.16-.49-2.16-1.44a3.34,3.34,0,0,1,1.21-2.51c.73-.45,1.41-.95,2.1-1.44a9.29,9.29,0,0,0,2.28-2.13c-1.56-.27-2.32-.88-2.32-1.79a5.26,5.26,0,0,1,.61-2.28c-.27-1-.23-1.63.19-2a1.47,1.47,0,0,1,1.06-.46,2.77,2.77,0,0,1,1.41.42,7.7,7.7,0,0,1,3.65,3.65" transform="translate(-839.56 -351.95)"/><path class="cls-1" d="M973.91,485.67c-.35.53-.54.84-.69.89q-3.75.92-9.12,2.42c-1.07.4-1.61.69-1.61.92s.73.48,2.27.82c.15,0,.23.26.23.63a1.57,1.57,0,0,1-.08.61c0,.05-.23.05-.54,0-1.88-.26-2.8-.71-2.8-1.36a2.44,2.44,0,0,1,.76-1.48,4.7,4.7,0,0,1,1.66-1.23,42.65,42.65,0,0,1,5-1.37c1.5-.37,3-.74,4.5-1.08.3-.08.46-.11.49-.08s0,.13-.07.29" transform="translate(-839.56 -351.95)"/><path class="cls-1" d="M865.33,462.5c.23-.38.46-.57.77-.57.16,0,.23.07.23.23a.4.4,0,0,1,0,.19c-.3.69-.57,1.43-.84,2.2,1.62,1.23,2.39,2.43,2.27,3.62a5.08,5.08,0,0,1-.54,2.47,3.21,3.21,0,0,1-2.66,1.47c-1,0-1.54-.66-1.54-1.89a4.35,4.35,0,0,1,.07-.93,23,23,0,0,1,2.28-6.79m1.7,6.25c0-.46-.81-1.15-2.43-2a5.72,5.72,0,0,0-.77,2.58c0,.47.23.74.69.74a3.14,3.14,0,0,0,1.39-.43,3.73,3.73,0,0,0,1.12-.85" transform="translate(-839.56 -351.95)"/><path class="cls-1" d="M927.91,531.42a9.5,9.5,0,0,1-4.07,2.42,21.74,21.74,0,0,1-4.38,1c-.25,0-1.7.13-4.32.24a2.39,2.39,0,0,1-.82,0c-.08,0-.06-.06-.05-.09s.26-.2.77-.31c2.29-.45,5.58-1.3,9.85-2.47A13.83,13.83,0,0,0,927.5,531a4.58,4.58,0,0,1,1.3-.69v0a7.07,7.07,0,0,1-.88,1.11m7.42-6.74a4.12,4.12,0,0,1-.38.67c-.28.39-.5.56-.68.5s-.19-.26-.34-.67a1.05,1.05,0,0,0-.6-.71c-.58-.18-1.56,1-3,3.62a11.23,11.23,0,0,1-1.54,2.32c-.32.25-.53.39-.67.34s-.12-.24,0-.53a9.68,9.68,0,0,0,.09-3.1c-.09-1.58-.27-2.39-.52-2.47s-.26,0-.33.05-.24.12-.45,0-.52-.36-.79-.89-.4-.84-.33-1.06a4.63,4.63,0,0,1,.82-.84c.51-.47.81-.66.88-.63a2.86,2.86,0,0,1,1.77,2.15,10.41,10.41,0,0,1,.14,4.26,1.38,1.38,0,0,1-.06.3s.06.06.07,0,.07-.1.2-.25c.45-.89,1.21-2.15,2.32-3.86,1-1.16,1.79-1.61,2.47-1.39.32.1.58.42.79,1a1.93,1.93,0,0,1,.12,1.11" transform="translate(-839.56 -351.95)"/><path class="cls-1" d="M906.89,533.77a3.91,3.91,0,0,0,.25-1.25,5.18,5.18,0,0,0-.1-1.18,9.8,9.8,0,0,0-.31-1.15c-.13-.39-.26-.78-.39-1.19a1.8,1.8,0,0,1-.11-.78,1.6,1.6,0,0,1,.18-.65,1.09,1.09,0,0,1,.38-.44.91.91,0,0,1,.54-.13,1.09,1.09,0,0,1,.63.29,1.47,1.47,0,0,1,.38.57,1.75,1.75,0,0,1,.14.67.92.92,0,0,1-.15.55.57.57,0,0,1-.45.25,1.25,1.25,0,0,1-.77-.25,13.87,13.87,0,0,1,.59,2,5.21,5.21,0,0,1,.1,1.79,5,5,0,0,1-.54,1.71,7.23,7.23,0,0,1-1.33,1.71c0-.29.05-.61.08-1s0-.7,0-1.06a10.09,10.09,0,0,0-.06-1.09,4.44,4.44,0,0,0-.21-1,3.49,3.49,0,0,0-.43-.94,3.11,3.11,0,0,0-.71-.74,3.16,3.16,0,0,1,.34,1c0,.25-.12.42-.42.53a1.78,1.78,0,0,1-.68.1,1.1,1.1,0,0,1-.49-.17,1.31,1.31,0,0,1-.33-.37,2.21,2.21,0,0,1-.21-.5,2.06,2.06,0,0,1,0-1,1.05,1.05,0,0,1,.44-.64,1,1,0,0,1,.78-.1,2,2,0,0,1,1,.6,5.92,5.92,0,0,1,1,1.47A11.43,11.43,0,0,1,906.89,533.77Z" transform="translate(-839.56 -351.95)"/><path class="cls-1" d="M882.31,416.26a1.4,1.4,0,0,1,.54-.2,1.31,1.31,0,0,1,.59,0,1.53,1.53,0,0,1,.71.35,3.13,3.13,0,0,1,.51.59,2.28,2.28,0,0,1,.31.82,4,4,0,0,1,.06.85,5.25,5.25,0,0,1-.06.79c-.05.26-.11.52-.18.77s-.09.29-.13.43a2.09,2.09,0,0,1-.19.4.29.29,0,0,1-.05-.25,1.22,1.22,0,0,0,.06-.26,3.6,3.6,0,0,0,.11-1,2.11,2.11,0,0,0-.27-1,2.06,2.06,0,0,0-.56-.67,1.6,1.6,0,0,0-.38-.23,1.19,1.19,0,0,0-.43-.12c-.2,0-.41,0-.62,0a1.13,1.13,0,0,0-.58.17s-.08.05-.08.09a.28.28,0,0,0,0,.13,3.54,3.54,0,0,0,.23.53c.09.18.17.35.25.53a4.93,4.93,0,0,1,.22.53,2.91,2.91,0,0,1,.15.56,3.23,3.23,0,0,1,0,.76c0,.26,0,.51-.07.77s-.08.45-.14.68a2.59,2.59,0,0,1-.28.64,1,1,0,0,1-.32.3.8.8,0,0,1-.43.12.77.77,0,0,1-.42-.1,1.09,1.09,0,0,1-.33-.27.69.69,0,0,1-.18-.24l-.15-.26a4.89,4.89,0,0,0,0,.54,5.06,5.06,0,0,1-.06.53l-.12.66a2.13,2.13,0,0,1-.25.63,1.85,1.85,0,0,1-.3.39.91.91,0,0,1-.43.26,1.07,1.07,0,0,1-.4,0,1,1,0,0,1-.38-.13,1.52,1.52,0,0,1-.39-.37,1.07,1.07,0,0,1-.22-.47c0-.18,0-.36-.07-.53a3.17,3.17,0,0,1,0-.53c0-.07,0-.14,0-.2a1.5,1.5,0,0,0,0-.2.17.17,0,0,0-.05-.12.23.23,0,0,0-.12-.06l-.15,0-.13,0a2.31,2.31,0,0,0-.71.47,8.24,8.24,0,0,0-.56.62c-.17.23-.33.46-.48.7a5.26,5.26,0,0,0-.38.75c-.11.27-.22.55-.31.83a8,8,0,0,0-.26.87c-.06.16-.13.38-.22.66s-.2.56-.33.88-.26.63-.41.95a7.41,7.41,0,0,1-.49.89,3.43,3.43,0,0,1-.57.66,1.14,1.14,0,0,1-.64.3.77.77,0,0,1-.45-.08,1.89,1.89,0,0,1-.39-.26,1.17,1.17,0,0,1-.34-.45c-.07-.17-.13-.34-.19-.51a1.82,1.82,0,0,1-.11-.46c0-.15,0-.3,0-.46a5.73,5.73,0,0,1,.16-1.6,8.45,8.45,0,0,1,.57-1.52,5.21,5.21,0,0,1,.47-.83c.19-.25.39-.51.6-.76a11,11,0,0,1,.84-.83l.88-.8.62-.53.62-.53a7.37,7.37,0,0,0,.81-.77,8.12,8.12,0,0,0,.69-.86,1.56,1.56,0,0,0,.17-.25.66.66,0,0,1,.21-.23,2,2,0,0,1-.13.39,2.53,2.53,0,0,0-.18.37,6,6,0,0,1-.49.85c-.18.27-.38.53-.58.79a11.5,11.5,0,0,1-.86.85c-.3.27-.6.54-.92.79s-.67.59-1,.89-.64.61-1,.93a3.17,3.17,0,0,0-.53.73c-.14.26-.27.53-.39.8a3.15,3.15,0,0,0-.3,1.15,1.29,1.29,0,0,0,.07.51,2.06,2.06,0,0,0,.21.48,1.8,1.8,0,0,0,.35.38.93.93,0,0,0,.48.2.52.52,0,0,0,.39,0,1.19,1.19,0,0,0,.33-.19,1.75,1.75,0,0,0,.41-.45c.12-.17.23-.35.33-.52a5.45,5.45,0,0,0,.31-.58c.08-.2.18-.4.27-.6s.19-.5.29-.74a6.61,6.61,0,0,0,.28-.74c.07-.18.14-.35.19-.52s.12-.35.19-.52.18-.46.26-.7a3.61,3.61,0,0,1,.28-.68c.11-.21.23-.42.36-.62a5.19,5.19,0,0,1,.42-.57,3.08,3.08,0,0,1,.42-.47,5.15,5.15,0,0,1,.5-.4l.23-.14a1.14,1.14,0,0,1,.26-.09.51.51,0,0,1,.27,0,.24.24,0,0,1,.17.19,3.91,3.91,0,0,1,0,.68c0,.23,0,.45,0,.68a1.46,1.46,0,0,0,.1.46,1,1,0,0,0,.29.39.81.81,0,0,0,.42.19.65.65,0,0,0,.44-.06.94.94,0,0,0,.4-.31,2.65,2.65,0,0,0,.26-.42,1.85,1.85,0,0,0,.18-.65,2.44,2.44,0,0,0,0-.66c0-.33-.11-.66-.16-1s-.11-.65-.15-1a2.94,2.94,0,0,1,0-.42l0-.43,0-.27a.72.72,0,0,1,.09-.27,1.69,1.69,0,0,1,.12.36c0,.12,0,.24.08.36l.21.9c.08.3.17.59.27.88a1.58,1.58,0,0,0,.16.35.66.66,0,0,0,.27.28,1.15,1.15,0,0,0,.43.14.64.64,0,0,0,.43-.09,1.5,1.5,0,0,0,.24-.2.53.53,0,0,0,.15-.26.54.54,0,0,0,0-.28c0-.09-.07-.19-.1-.28s-.17-.38-.25-.57-.16-.38-.25-.57a2.46,2.46,0,0,1-.21-.63,2.37,2.37,0,0,1,0-.65,3,3,0,0,1,.17-.65c.09-.21.18-.42.29-.62a2,2,0,0,1,.25-.39A1.38,1.38,0,0,1,882.31,416.26Z" transform="translate(-839.56 -351.95)"/></svg>